<?xml version="1.0" encoding="utf-8" standalone="no"?>
<!DOCTYPE svg PUBLIC "-//W3C//DTD SVG 1.1//EN"
  "http://www.w3.org/Graphics/SVG/1.1/DTD/svg11.dtd">
<svg xmlns:xlink="http://www.w3.org/1999/xlink" width="720pt" height="504pt" viewBox="0 0 720 504" xmlns="http://www.w3.org/2000/svg" version="1.1">
 <metadata>
  <rdf:RDF xmlns:dc="http://purl.org/dc/elements/1.1/" xmlns:cc="http://creativecommons.org/ns#" xmlns:rdf="http://www.w3.org/1999/02/22-rdf-syntax-ns#">
   <cc:Work>
    <dc:type rdf:resource="http://purl.org/dc/dcmitype/StillImage"/>
    <dc:date>2023-09-07T16:52:06.849213</dc:date>
    <dc:format>image/svg+xml</dc:format>
    <dc:creator>
     <cc:Agent>
      <dc:title>Matplotlib v3.7.1, https://matplotlib.org/</dc:title>
     </cc:Agent>
    </dc:creator>
   </cc:Work>
  </rdf:RDF>
 </metadata>
 <defs>
  <style type="text/css">*{stroke-linejoin: round; stroke-linecap: butt}</style>
 </defs>
 <g id="figure_1">
  <g id="patch_1">
   <path d="M 0 504 
L 720 504 
L 720 0 
L 0 0 
z
" style="fill: #ffffff"/>
  </g>
  <g id="axes_1">
   <g id="patch_2">
    <path d="M 90 448.56 
L 648 448.56 
L 648 60.48 
L 90 60.48 
z
" style="fill: #ffffff"/>
   </g>
   <g id="matplotlib.axis_1">
    <g id="xtick_1">
     <g id="line2d_1">
      <defs>
       <path id="m3612394284" d="M 0 0 
L 0 3.5 
" style="stroke: #000000; stroke-width: 0.8"/>
      </defs>
      <g>
       <use xlink:href="#m3612394284" x="115.363636" y="448.56" style="stroke: #000000; stroke-width: 0.8"/>
      </g>
     </g>
     <g id="text_1">
      <!-- $\mathdefault{10^{0}}$ -->
      <g transform="translate(106.563636 463.158437) scale(0.1 -0.1)">
       <defs>
        <path id="DejaVuSans-31" d="M 794 531 
L 1825 531 
L 1825 4091 
L 703 3866 
L 703 4441 
L 1819 4666 
L 2450 4666 
L 2450 531 
L 3481 531 
L 3481 0 
L 794 0 
L 794 531 
z
" transform="scale(0.015625)"/>
        <path id="DejaVuSans-30" d="M 2034 4250 
Q 1547 4250 1301 3770 
Q 1056 3291 1056 2328 
Q 1056 1369 1301 889 
Q 1547 409 2034 409 
Q 2525 409 2770 889 
Q 3016 1369 3016 2328 
Q 3016 3291 2770 3770 
Q 2525 4250 2034 4250 
z
M 2034 4750 
Q 2819 4750 3233 4129 
Q 3647 3509 3647 2328 
Q 3647 1150 3233 529 
Q 2819 -91 2034 -91 
Q 1250 -91 836 529 
Q 422 1150 422 2328 
Q 422 3509 836 4129 
Q 1250 4750 2034 4750 
z
" transform="scale(0.015625)"/>
       </defs>
       <use xlink:href="#DejaVuSans-31" transform="translate(0 0.765625)"/>
       <use xlink:href="#DejaVuSans-30" transform="translate(63.623047 0.765625)"/>
       <use xlink:href="#DejaVuSans-30" transform="translate(128.203125 39.046875) scale(0.7)"/>
      </g>
     </g>
    </g>
    <g id="xtick_2">
     <g id="line2d_2">
      <g>
       <use xlink:href="#m3612394284" x="369" y="448.56" style="stroke: #000000; stroke-width: 0.8"/>
      </g>
     </g>
     <g id="text_2">
      <!-- $\mathdefault{10^{1}}$ -->
      <g transform="translate(360.2 463.158437) scale(0.1 -0.1)">
       <use xlink:href="#DejaVuSans-31" transform="translate(0 0.684375)"/>
       <use xlink:href="#DejaVuSans-30" transform="translate(63.623047 0.684375)"/>
       <use xlink:href="#DejaVuSans-31" transform="translate(128.203125 38.965625) scale(0.7)"/>
      </g>
     </g>
    </g>
    <g id="xtick_3">
     <g id="line2d_3">
      <g>
       <use xlink:href="#m3612394284" x="622.636364" y="448.56" style="stroke: #000000; stroke-width: 0.8"/>
      </g>
     </g>
     <g id="text_3">
      <!-- $\mathdefault{10^{2}}$ -->
      <g transform="translate(613.836364 463.158437) scale(0.1 -0.1)">
       <defs>
        <path id="DejaVuSans-32" d="M 1228 531 
L 3431 531 
L 3431 0 
L 469 0 
L 469 531 
Q 828 903 1448 1529 
Q 2069 2156 2228 2338 
Q 2531 2678 2651 2914 
Q 2772 3150 2772 3378 
Q 2772 3750 2511 3984 
Q 2250 4219 1831 4219 
Q 1534 4219 1204 4116 
Q 875 4013 500 3803 
L 500 4441 
Q 881 4594 1212 4672 
Q 1544 4750 1819 4750 
Q 2544 4750 2975 4387 
Q 3406 4025 3406 3419 
Q 3406 3131 3298 2873 
Q 3191 2616 2906 2266 
Q 2828 2175 2409 1742 
Q 1991 1309 1228 531 
z
" transform="scale(0.015625)"/>
       </defs>
       <use xlink:href="#DejaVuSans-31" transform="translate(0 0.765625)"/>
       <use xlink:href="#DejaVuSans-30" transform="translate(63.623047 0.765625)"/>
       <use xlink:href="#DejaVuSans-32" transform="translate(128.203125 39.046875) scale(0.7)"/>
      </g>
     </g>
    </g>
    <g id="xtick_4">
     <g id="line2d_4">
      <defs>
       <path id="mba02fd5469" d="M 0 0 
L 0 2 
" style="stroke: #000000; stroke-width: 0.6"/>
      </defs>
      <g>
       <use xlink:href="#mba02fd5469" x="90.783733" y="448.56" style="stroke: #000000; stroke-width: 0.6"/>
      </g>
     </g>
    </g>
    <g id="xtick_5">
     <g id="line2d_5">
      <g>
       <use xlink:href="#mba02fd5469" x="103.757873" y="448.56" style="stroke: #000000; stroke-width: 0.6"/>
      </g>
     </g>
    </g>
    <g id="xtick_6">
     <g id="line2d_6">
      <g>
       <use xlink:href="#mba02fd5469" x="191.71579" y="448.56" style="stroke: #000000; stroke-width: 0.6"/>
      </g>
     </g>
    </g>
    <g id="xtick_7">
     <g id="line2d_7">
      <g>
       <use xlink:href="#mba02fd5469" x="236.378936" y="448.56" style="stroke: #000000; stroke-width: 0.6"/>
      </g>
     </g>
    </g>
    <g id="xtick_8">
     <g id="line2d_8">
      <g>
       <use xlink:href="#mba02fd5469" x="268.067943" y="448.56" style="stroke: #000000; stroke-width: 0.6"/>
      </g>
     </g>
    </g>
    <g id="xtick_9">
     <g id="line2d_9">
      <g>
       <use xlink:href="#mba02fd5469" x="292.647847" y="448.56" style="stroke: #000000; stroke-width: 0.6"/>
      </g>
     </g>
    </g>
    <g id="xtick_10">
     <g id="line2d_10">
      <g>
       <use xlink:href="#mba02fd5469" x="312.73109" y="448.56" style="stroke: #000000; stroke-width: 0.6"/>
      </g>
     </g>
    </g>
    <g id="xtick_11">
     <g id="line2d_11">
      <g>
       <use xlink:href="#mba02fd5469" x="329.71123" y="448.56" style="stroke: #000000; stroke-width: 0.6"/>
      </g>
     </g>
    </g>
    <g id="xtick_12">
     <g id="line2d_12">
      <g>
       <use xlink:href="#mba02fd5469" x="344.420097" y="448.56" style="stroke: #000000; stroke-width: 0.6"/>
      </g>
     </g>
    </g>
    <g id="xtick_13">
     <g id="line2d_13">
      <g>
       <use xlink:href="#mba02fd5469" x="357.394236" y="448.56" style="stroke: #000000; stroke-width: 0.6"/>
      </g>
     </g>
    </g>
    <g id="xtick_14">
     <g id="line2d_14">
      <g>
       <use xlink:href="#mba02fd5469" x="445.352153" y="448.56" style="stroke: #000000; stroke-width: 0.6"/>
      </g>
     </g>
    </g>
    <g id="xtick_15">
     <g id="line2d_15">
      <g>
       <use xlink:href="#mba02fd5469" x="490.0153" y="448.56" style="stroke: #000000; stroke-width: 0.6"/>
      </g>
     </g>
    </g>
    <g id="xtick_16">
     <g id="line2d_16">
      <g>
       <use xlink:href="#mba02fd5469" x="521.704307" y="448.56" style="stroke: #000000; stroke-width: 0.6"/>
      </g>
     </g>
    </g>
    <g id="xtick_17">
     <g id="line2d_17">
      <g>
       <use xlink:href="#mba02fd5469" x="546.28421" y="448.56" style="stroke: #000000; stroke-width: 0.6"/>
      </g>
     </g>
    </g>
    <g id="xtick_18">
     <g id="line2d_18">
      <g>
       <use xlink:href="#mba02fd5469" x="566.367454" y="448.56" style="stroke: #000000; stroke-width: 0.6"/>
      </g>
     </g>
    </g>
    <g id="xtick_19">
     <g id="line2d_19">
      <g>
       <use xlink:href="#mba02fd5469" x="583.347594" y="448.56" style="stroke: #000000; stroke-width: 0.6"/>
      </g>
     </g>
    </g>
    <g id="xtick_20">
     <g id="line2d_20">
      <g>
       <use xlink:href="#mba02fd5469" x="598.05646" y="448.56" style="stroke: #000000; stroke-width: 0.6"/>
      </g>
     </g>
    </g>
    <g id="xtick_21">
     <g id="line2d_21">
      <g>
       <use xlink:href="#mba02fd5469" x="611.0306" y="448.56" style="stroke: #000000; stroke-width: 0.6"/>
      </g>
     </g>
    </g>
    <g id="text_4">
     <!-- rank -->
     <g transform="translate(357.816406 476.836563) scale(0.1 -0.1)">
      <defs>
       <path id="DejaVuSans-72" d="M 2631 2963 
Q 2534 3019 2420 3045 
Q 2306 3072 2169 3072 
Q 1681 3072 1420 2755 
Q 1159 2438 1159 1844 
L 1159 0 
L 581 0 
L 581 3500 
L 1159 3500 
L 1159 2956 
Q 1341 3275 1631 3429 
Q 1922 3584 2338 3584 
Q 2397 3584 2469 3576 
Q 2541 3569 2628 3553 
L 2631 2963 
z
" transform="scale(0.015625)"/>
       <path id="DejaVuSans-61" d="M 2194 1759 
Q 1497 1759 1228 1600 
Q 959 1441 959 1056 
Q 959 750 1161 570 
Q 1363 391 1709 391 
Q 2188 391 2477 730 
Q 2766 1069 2766 1631 
L 2766 1759 
L 2194 1759 
z
M 3341 1997 
L 3341 0 
L 2766 0 
L 2766 531 
Q 2569 213 2275 61 
Q 1981 -91 1556 -91 
Q 1019 -91 701 211 
Q 384 513 384 1019 
Q 384 1609 779 1909 
Q 1175 2209 1959 2209 
L 2766 2209 
L 2766 2266 
Q 2766 2663 2505 2880 
Q 2244 3097 1772 3097 
Q 1472 3097 1187 3025 
Q 903 2953 641 2809 
L 641 3341 
Q 956 3463 1253 3523 
Q 1550 3584 1831 3584 
Q 2591 3584 2966 3190 
Q 3341 2797 3341 1997 
z
" transform="scale(0.015625)"/>
       <path id="DejaVuSans-6e" d="M 3513 2113 
L 3513 0 
L 2938 0 
L 2938 2094 
Q 2938 2591 2744 2837 
Q 2550 3084 2163 3084 
Q 1697 3084 1428 2787 
Q 1159 2491 1159 1978 
L 1159 0 
L 581 0 
L 581 3500 
L 1159 3500 
L 1159 2956 
Q 1366 3272 1645 3428 
Q 1925 3584 2291 3584 
Q 2894 3584 3203 3211 
Q 3513 2838 3513 2113 
z
" transform="scale(0.015625)"/>
       <path id="DejaVuSans-6b" d="M 581 4863 
L 1159 4863 
L 1159 1991 
L 2875 3500 
L 3609 3500 
L 1753 1863 
L 3688 0 
L 2938 0 
L 1159 1709 
L 1159 0 
L 581 0 
L 581 4863 
z
" transform="scale(0.015625)"/>
      </defs>
      <use xlink:href="#DejaVuSans-72"/>
      <use xlink:href="#DejaVuSans-61" x="41.113281"/>
      <use xlink:href="#DejaVuSans-6e" x="102.392578"/>
      <use xlink:href="#DejaVuSans-6b" x="165.771484"/>
     </g>
    </g>
   </g>
   <g id="matplotlib.axis_2">
    <g id="ytick_1">
     <g id="line2d_22">
      <defs>
       <path id="m414d845bd8" d="M 0 0 
L -3.5 0 
" style="stroke: #000000; stroke-width: 0.8"/>
      </defs>
      <g>
       <use xlink:href="#m414d845bd8" x="90" y="335.843583" style="stroke: #000000; stroke-width: 0.8"/>
      </g>
     </g>
     <g id="text_5">
      <!-- $\mathdefault{10^{3}}$ -->
      <g transform="translate(65.4 339.642802) scale(0.1 -0.1)">
       <defs>
        <path id="DejaVuSans-33" d="M 2597 2516 
Q 3050 2419 3304 2112 
Q 3559 1806 3559 1356 
Q 3559 666 3084 287 
Q 2609 -91 1734 -91 
Q 1441 -91 1130 -33 
Q 819 25 488 141 
L 488 750 
Q 750 597 1062 519 
Q 1375 441 1716 441 
Q 2309 441 2620 675 
Q 2931 909 2931 1356 
Q 2931 1769 2642 2001 
Q 2353 2234 1838 2234 
L 1294 2234 
L 1294 2753 
L 1863 2753 
Q 2328 2753 2575 2939 
Q 2822 3125 2822 3475 
Q 2822 3834 2567 4026 
Q 2313 4219 1838 4219 
Q 1578 4219 1281 4162 
Q 984 4106 628 3988 
L 628 4550 
Q 988 4650 1302 4700 
Q 1616 4750 1894 4750 
Q 2613 4750 3031 4423 
Q 3450 4097 3450 3541 
Q 3450 3153 3228 2886 
Q 3006 2619 2597 2516 
z
" transform="scale(0.015625)"/>
       </defs>
       <use xlink:href="#DejaVuSans-31" transform="translate(0 0.765625)"/>
       <use xlink:href="#DejaVuSans-30" transform="translate(63.623047 0.765625)"/>
       <use xlink:href="#DejaVuSans-33" transform="translate(128.203125 39.046875) scale(0.7)"/>
      </g>
     </g>
    </g>
    <g id="ytick_2">
     <g id="line2d_23">
      <g>
       <use xlink:href="#m414d845bd8" x="90" y="159.443583" style="stroke: #000000; stroke-width: 0.8"/>
      </g>
     </g>
     <g id="text_6">
      <!-- $\mathdefault{10^{4}}$ -->
      <g transform="translate(65.4 163.242802) scale(0.1 -0.1)">
       <defs>
        <path id="DejaVuSans-34" d="M 2419 4116 
L 825 1625 
L 2419 1625 
L 2419 4116 
z
M 2253 4666 
L 3047 4666 
L 3047 1625 
L 3713 1625 
L 3713 1100 
L 3047 1100 
L 3047 0 
L 2419 0 
L 2419 1100 
L 313 1100 
L 313 1709 
L 2253 4666 
z
" transform="scale(0.015625)"/>
       </defs>
       <use xlink:href="#DejaVuSans-31" transform="translate(0 0.684375)"/>
       <use xlink:href="#DejaVuSans-30" transform="translate(63.623047 0.684375)"/>
       <use xlink:href="#DejaVuSans-34" transform="translate(128.203125 38.965625) scale(0.7)"/>
      </g>
     </g>
    </g>
    <g id="ytick_3">
     <g id="line2d_24">
      <defs>
       <path id="m025701d28f" d="M 0 0 
L -2 0 
" style="stroke: #000000; stroke-width: 0.6"/>
      </defs>
      <g>
       <use xlink:href="#m025701d28f" x="90" y="428.079394" style="stroke: #000000; stroke-width: 0.6"/>
      </g>
     </g>
    </g>
    <g id="ytick_4">
     <g id="line2d_25">
      <g>
       <use xlink:href="#m025701d28f" x="90" y="406.040201" style="stroke: #000000; stroke-width: 0.6"/>
      </g>
     </g>
    </g>
    <g id="ytick_5">
     <g id="line2d_26">
      <g>
       <use xlink:href="#m025701d28f" x="90" y="388.945275" style="stroke: #000000; stroke-width: 0.6"/>
      </g>
     </g>
    </g>
    <g id="ytick_6">
     <g id="line2d_27">
      <g>
       <use xlink:href="#m025701d28f" x="90" y="374.977703" style="stroke: #000000; stroke-width: 0.6"/>
      </g>
     </g>
    </g>
    <g id="ytick_7">
     <g id="line2d_28">
      <g>
       <use xlink:href="#m025701d28f" x="90" y="363.168289" style="stroke: #000000; stroke-width: 0.6"/>
      </g>
     </g>
    </g>
    <g id="ytick_8">
     <g id="line2d_29">
      <g>
       <use xlink:href="#m025701d28f" x="90" y="352.93851" style="stroke: #000000; stroke-width: 0.6"/>
      </g>
     </g>
    </g>
    <g id="ytick_9">
     <g id="line2d_30">
      <g>
       <use xlink:href="#m025701d28f" x="90" y="343.915205" style="stroke: #000000; stroke-width: 0.6"/>
      </g>
     </g>
    </g>
    <g id="ytick_10">
     <g id="line2d_31">
      <g>
       <use xlink:href="#m025701d28f" x="90" y="282.741892" style="stroke: #000000; stroke-width: 0.6"/>
      </g>
     </g>
    </g>
    <g id="ytick_11">
     <g id="line2d_32">
      <g>
       <use xlink:href="#m025701d28f" x="90" y="251.679394" style="stroke: #000000; stroke-width: 0.6"/>
      </g>
     </g>
    </g>
    <g id="ytick_12">
     <g id="line2d_33">
      <g>
       <use xlink:href="#m025701d28f" x="90" y="229.640201" style="stroke: #000000; stroke-width: 0.6"/>
      </g>
     </g>
    </g>
    <g id="ytick_13">
     <g id="line2d_34">
      <g>
       <use xlink:href="#m025701d28f" x="90" y="212.545275" style="stroke: #000000; stroke-width: 0.6"/>
      </g>
     </g>
    </g>
    <g id="ytick_14">
     <g id="line2d_35">
      <g>
       <use xlink:href="#m025701d28f" x="90" y="198.577703" style="stroke: #000000; stroke-width: 0.6"/>
      </g>
     </g>
    </g>
    <g id="ytick_15">
     <g id="line2d_36">
      <g>
       <use xlink:href="#m025701d28f" x="90" y="186.768289" style="stroke: #000000; stroke-width: 0.6"/>
      </g>
     </g>
    </g>
    <g id="ytick_16">
     <g id="line2d_37">
      <g>
       <use xlink:href="#m025701d28f" x="90" y="176.53851" style="stroke: #000000; stroke-width: 0.6"/>
      </g>
     </g>
    </g>
    <g id="ytick_17">
     <g id="line2d_38">
      <g>
       <use xlink:href="#m025701d28f" x="90" y="167.515205" style="stroke: #000000; stroke-width: 0.6"/>
      </g>
     </g>
    </g>
    <g id="ytick_18">
     <g id="line2d_39">
      <g>
       <use xlink:href="#m025701d28f" x="90" y="106.341892" style="stroke: #000000; stroke-width: 0.6"/>
      </g>
     </g>
    </g>
    <g id="ytick_19">
     <g id="line2d_40">
      <g>
       <use xlink:href="#m025701d28f" x="90" y="75.279394" style="stroke: #000000; stroke-width: 0.6"/>
      </g>
     </g>
    </g>
    <g id="text_7">
     <!-- frequency -->
     <g transform="translate(59.320312 279.596563) rotate(-90) scale(0.1 -0.1)">
      <defs>
       <path id="DejaVuSans-66" d="M 2375 4863 
L 2375 4384 
L 1825 4384 
Q 1516 4384 1395 4259 
Q 1275 4134 1275 3809 
L 1275 3500 
L 2222 3500 
L 2222 3053 
L 1275 3053 
L 1275 0 
L 697 0 
L 697 3053 
L 147 3053 
L 147 3500 
L 697 3500 
L 697 3744 
Q 697 4328 969 4595 
Q 1241 4863 1831 4863 
L 2375 4863 
z
" transform="scale(0.015625)"/>
       <path id="DejaVuSans-65" d="M 3597 1894 
L 3597 1613 
L 953 1613 
Q 991 1019 1311 708 
Q 1631 397 2203 397 
Q 2534 397 2845 478 
Q 3156 559 3463 722 
L 3463 178 
Q 3153 47 2828 -22 
Q 2503 -91 2169 -91 
Q 1331 -91 842 396 
Q 353 884 353 1716 
Q 353 2575 817 3079 
Q 1281 3584 2069 3584 
Q 2775 3584 3186 3129 
Q 3597 2675 3597 1894 
z
M 3022 2063 
Q 3016 2534 2758 2815 
Q 2500 3097 2075 3097 
Q 1594 3097 1305 2825 
Q 1016 2553 972 2059 
L 3022 2063 
z
" transform="scale(0.015625)"/>
       <path id="DejaVuSans-71" d="M 947 1747 
Q 947 1113 1208 752 
Q 1469 391 1925 391 
Q 2381 391 2643 752 
Q 2906 1113 2906 1747 
Q 2906 2381 2643 2742 
Q 2381 3103 1925 3103 
Q 1469 3103 1208 2742 
Q 947 2381 947 1747 
z
M 2906 525 
Q 2725 213 2448 61 
Q 2172 -91 1784 -91 
Q 1150 -91 751 415 
Q 353 922 353 1747 
Q 353 2572 751 3078 
Q 1150 3584 1784 3584 
Q 2172 3584 2448 3432 
Q 2725 3281 2906 2969 
L 2906 3500 
L 3481 3500 
L 3481 -1331 
L 2906 -1331 
L 2906 525 
z
" transform="scale(0.015625)"/>
       <path id="DejaVuSans-75" d="M 544 1381 
L 544 3500 
L 1119 3500 
L 1119 1403 
Q 1119 906 1312 657 
Q 1506 409 1894 409 
Q 2359 409 2629 706 
Q 2900 1003 2900 1516 
L 2900 3500 
L 3475 3500 
L 3475 0 
L 2900 0 
L 2900 538 
Q 2691 219 2414 64 
Q 2138 -91 1772 -91 
Q 1169 -91 856 284 
Q 544 659 544 1381 
z
M 1991 3584 
L 1991 3584 
z
" transform="scale(0.015625)"/>
       <path id="DejaVuSans-63" d="M 3122 3366 
L 3122 2828 
Q 2878 2963 2633 3030 
Q 2388 3097 2138 3097 
Q 1578 3097 1268 2742 
Q 959 2388 959 1747 
Q 959 1106 1268 751 
Q 1578 397 2138 397 
Q 2388 397 2633 464 
Q 2878 531 3122 666 
L 3122 134 
Q 2881 22 2623 -34 
Q 2366 -91 2075 -91 
Q 1284 -91 818 406 
Q 353 903 353 1747 
Q 353 2603 823 3093 
Q 1294 3584 2113 3584 
Q 2378 3584 2631 3529 
Q 2884 3475 3122 3366 
z
" transform="scale(0.015625)"/>
       <path id="DejaVuSans-79" d="M 2059 -325 
Q 1816 -950 1584 -1140 
Q 1353 -1331 966 -1331 
L 506 -1331 
L 506 -850 
L 844 -850 
Q 1081 -850 1212 -737 
Q 1344 -625 1503 -206 
L 1606 56 
L 191 3500 
L 800 3500 
L 1894 763 
L 2988 3500 
L 3597 3500 
L 2059 -325 
z
" transform="scale(0.015625)"/>
      </defs>
      <use xlink:href="#DejaVuSans-66"/>
      <use xlink:href="#DejaVuSans-72" x="35.205078"/>
      <use xlink:href="#DejaVuSans-65" x="74.068359"/>
      <use xlink:href="#DejaVuSans-71" x="135.591797"/>
      <use xlink:href="#DejaVuSans-75" x="199.068359"/>
      <use xlink:href="#DejaVuSans-65" x="262.447266"/>
      <use xlink:href="#DejaVuSans-6e" x="323.970703"/>
      <use xlink:href="#DejaVuSans-63" x="387.349609"/>
      <use xlink:href="#DejaVuSans-79" x="442.330078"/>
     </g>
    </g>
   </g>
   <g id="line2d_41">
    <path d="M 115.363636 78.12 
L 191.71579 131.221691 
L 236.378936 162.284189 
L 268.067943 184.323382 
L 292.647847 201.418309 
L 312.73109 215.385881 
L 329.71123 227.195294 
L 344.420097 237.425074 
L 357.394236 246.448379 
L 369 254.52 
L 379.49869 261.82167 
L 389.083243 268.487572 
L 397.900178 274.619607 
L 406.063384 280.296985 
L 413.663147 285.582498 
L 420.77225 290.526765 
L 427.450226 295.17119 
L 433.74639 299.55007 
L 439.70205 303.692135 
L 445.352153 307.621691 
L 450.72653 311.359484 
L 455.850844 314.923361 
L 460.747333 318.32879 
L 465.435397 321.589263 
L 469.932057 324.716618 
L 474.252331 327.721299 
L 478.409537 330.612568 
L 482.415537 333.398677 
L 486.280947 336.087007 
L 490.0153 338.684189 
L 493.627193 341.196203 
L 497.124404 343.628456 
L 500.51399 345.985859 
L 503.80238 348.272881 
L 506.99544 350.493603 
L 510.098543 352.651761 
L 513.116619 354.750784 
L 516.054203 356.793826 
L 518.915478 358.783797 
L 521.704307 360.723382 
L 524.424269 362.615072 
L 527.078684 364.461175 
L 529.670636 366.263836 
L 532.202997 368.025052 
L 534.678447 369.746687 
L 537.099486 371.430482 
L 539.468457 373.078062 
L 541.78755 374.690954 
L 544.058824 376.270589 
L 546.28421 377.818309 
L 548.465526 379.335379 
L 550.604484 380.82299 
L 552.702698 382.282263 
L 554.76169 383.714259 
L 556.7829 385.119978 
L 558.76769 386.500368 
L 560.71735 387.856325 
L 562.6331 389.188698 
L 564.516101 390.498295 
L 566.367454 391.785881 
L 568.188204 393.052183 
L 569.979347 394.297894 
L 571.74183 395.523673 
L 573.476557 396.730147 
L 575.184388 397.917916 
L 576.866144 399.08755 
L 578.522609 400.239595 
L 580.154533 401.374572 
L 581.762633 402.49298 
L 583.347594 403.595294 
L 584.910072 404.681973 
L 586.450697 405.753452 
L 587.970071 406.810153 
L 589.468773 407.852475 
L 590.947357 408.880807 
L 592.406357 409.895518 
L 593.846284 410.896964 
L 595.267631 411.885488 
L 596.670871 412.861419 
L 598.05646 413.825074 
L 599.424837 414.776757 
L 600.776423 415.716764 
L 602.111625 416.645375 
L 603.430837 417.562866 
L 604.734437 418.469498 
L 606.022789 419.365527 
L 607.296247 420.251196 
L 608.55515 421.126743 
L 609.799829 421.992397 
L 611.0306 422.848379 
L 612.247771 423.694902 
L 613.45164 424.532173 
L 614.642493 425.360392 
L 615.82061 426.179753 
L 616.98626 426.990444 
L 618.139704 427.792646 
L 619.281194 428.586534 
L 620.410977 429.37228 
L 621.52929 430.150048 
L 622.636364 430.92 
" clip-path="url(#p8de0758f15)" style="fill: none; stroke: #1f77b4; stroke-width: 1.5; stroke-linecap: square"/>
    <defs>
     <path id="md738705d9e" d="M 0 1.5 
C 0.397805 1.5 0.77937 1.341951 1.06066 1.06066 
C 1.341951 0.77937 1.5 0.397805 1.5 0 
C 1.5 -0.397805 1.341951 -0.77937 1.06066 -1.06066 
C 0.77937 -1.341951 0.397805 -1.5 0 -1.5 
C -0.397805 -1.5 -0.77937 -1.341951 -1.06066 -1.06066 
C -1.341951 -0.77937 -1.5 -0.397805 -1.5 0 
C -1.5 0.397805 -1.341951 0.77937 -1.06066 1.06066 
C -0.77937 1.341951 -0.397805 1.5 0 1.5 
z
" style="stroke: #1f77b4"/>
    </defs>
    <g clip-path="url(#p8de0758f15)">
     <use xlink:href="#md738705d9e" x="115.363636" y="78.12" style="fill: #1f77b4; stroke: #1f77b4"/>
     <use xlink:href="#md738705d9e" x="191.71579" y="131.221691" style="fill: #1f77b4; stroke: #1f77b4"/>
     <use xlink:href="#md738705d9e" x="236.378936" y="162.284189" style="fill: #1f77b4; stroke: #1f77b4"/>
     <use xlink:href="#md738705d9e" x="268.067943" y="184.323382" style="fill: #1f77b4; stroke: #1f77b4"/>
     <use xlink:href="#md738705d9e" x="292.647847" y="201.418309" style="fill: #1f77b4; stroke: #1f77b4"/>
     <use xlink:href="#md738705d9e" x="312.73109" y="215.385881" style="fill: #1f77b4; stroke: #1f77b4"/>
     <use xlink:href="#md738705d9e" x="329.71123" y="227.195294" style="fill: #1f77b4; stroke: #1f77b4"/>
     <use xlink:href="#md738705d9e" x="344.420097" y="237.425074" style="fill: #1f77b4; stroke: #1f77b4"/>
     <use xlink:href="#md738705d9e" x="357.394236" y="246.448379" style="fill: #1f77b4; stroke: #1f77b4"/>
     <use xlink:href="#md738705d9e" x="369" y="254.52" style="fill: #1f77b4; stroke: #1f77b4"/>
     <use xlink:href="#md738705d9e" x="379.49869" y="261.82167" style="fill: #1f77b4; stroke: #1f77b4"/>
     <use xlink:href="#md738705d9e" x="389.083243" y="268.487572" style="fill: #1f77b4; stroke: #1f77b4"/>
     <use xlink:href="#md738705d9e" x="397.900178" y="274.619607" style="fill: #1f77b4; stroke: #1f77b4"/>
     <use xlink:href="#md738705d9e" x="406.063384" y="280.296985" style="fill: #1f77b4; stroke: #1f77b4"/>
     <use xlink:href="#md738705d9e" x="413.663147" y="285.582498" style="fill: #1f77b4; stroke: #1f77b4"/>
     <use xlink:href="#md738705d9e" x="420.77225" y="290.526765" style="fill: #1f77b4; stroke: #1f77b4"/>
     <use xlink:href="#md738705d9e" x="427.450226" y="295.17119" style="fill: #1f77b4; stroke: #1f77b4"/>
     <use xlink:href="#md738705d9e" x="433.74639" y="299.55007" style="fill: #1f77b4; stroke: #1f77b4"/>
     <use xlink:href="#md738705d9e" x="439.70205" y="303.692135" style="fill: #1f77b4; stroke: #1f77b4"/>
     <use xlink:href="#md738705d9e" x="445.352153" y="307.621691" style="fill: #1f77b4; stroke: #1f77b4"/>
     <use xlink:href="#md738705d9e" x="450.72653" y="311.359484" style="fill: #1f77b4; stroke: #1f77b4"/>
     <use xlink:href="#md738705d9e" x="455.850844" y="314.923361" style="fill: #1f77b4; stroke: #1f77b4"/>
     <use xlink:href="#md738705d9e" x="460.747333" y="318.32879" style="fill: #1f77b4; stroke: #1f77b4"/>
     <use xlink:href="#md738705d9e" x="465.435397" y="321.589263" style="fill: #1f77b4; stroke: #1f77b4"/>
     <use xlink:href="#md738705d9e" x="469.932057" y="324.716618" style="fill: #1f77b4; stroke: #1f77b4"/>
     <use xlink:href="#md738705d9e" x="474.252331" y="327.721299" style="fill: #1f77b4; stroke: #1f77b4"/>
     <use xlink:href="#md738705d9e" x="478.409537" y="330.612568" style="fill: #1f77b4; stroke: #1f77b4"/>
     <use xlink:href="#md738705d9e" x="482.415537" y="333.398677" style="fill: #1f77b4; stroke: #1f77b4"/>
     <use xlink:href="#md738705d9e" x="486.280947" y="336.087007" style="fill: #1f77b4; stroke: #1f77b4"/>
     <use xlink:href="#md738705d9e" x="490.0153" y="338.684189" style="fill: #1f77b4; stroke: #1f77b4"/>
     <use xlink:href="#md738705d9e" x="493.627193" y="341.196203" style="fill: #1f77b4; stroke: #1f77b4"/>
     <use xlink:href="#md738705d9e" x="497.124404" y="343.628456" style="fill: #1f77b4; stroke: #1f77b4"/>
     <use xlink:href="#md738705d9e" x="500.51399" y="345.985859" style="fill: #1f77b4; stroke: #1f77b4"/>
     <use xlink:href="#md738705d9e" x="503.80238" y="348.272881" style="fill: #1f77b4; stroke: #1f77b4"/>
     <use xlink:href="#md738705d9e" x="506.99544" y="350.493603" style="fill: #1f77b4; stroke: #1f77b4"/>
     <use xlink:href="#md738705d9e" x="510.098543" y="352.651761" style="fill: #1f77b4; stroke: #1f77b4"/>
     <use xlink:href="#md738705d9e" x="513.116619" y="354.750784" style="fill: #1f77b4; stroke: #1f77b4"/>
     <use xlink:href="#md738705d9e" x="516.054203" y="356.793826" style="fill: #1f77b4; stroke: #1f77b4"/>
     <use xlink:href="#md738705d9e" x="518.915478" y="358.783797" style="fill: #1f77b4; stroke: #1f77b4"/>
     <use xlink:href="#md738705d9e" x="521.704307" y="360.723382" style="fill: #1f77b4; stroke: #1f77b4"/>
     <use xlink:href="#md738705d9e" x="524.424269" y="362.615072" style="fill: #1f77b4; stroke: #1f77b4"/>
     <use xlink:href="#md738705d9e" x="527.078684" y="364.461175" style="fill: #1f77b4; stroke: #1f77b4"/>
     <use xlink:href="#md738705d9e" x="529.670636" y="366.263836" style="fill: #1f77b4; stroke: #1f77b4"/>
     <use xlink:href="#md738705d9e" x="532.202997" y="368.025052" style="fill: #1f77b4; stroke: #1f77b4"/>
     <use xlink:href="#md738705d9e" x="534.678447" y="369.746687" style="fill: #1f77b4; stroke: #1f77b4"/>
     <use xlink:href="#md738705d9e" x="537.099486" y="371.430482" style="fill: #1f77b4; stroke: #1f77b4"/>
     <use xlink:href="#md738705d9e" x="539.468457" y="373.078062" style="fill: #1f77b4; stroke: #1f77b4"/>
     <use xlink:href="#md738705d9e" x="541.78755" y="374.690954" style="fill: #1f77b4; stroke: #1f77b4"/>
     <use xlink:href="#md738705d9e" x="544.058824" y="376.270589" style="fill: #1f77b4; stroke: #1f77b4"/>
     <use xlink:href="#md738705d9e" x="546.28421" y="377.818309" style="fill: #1f77b4; stroke: #1f77b4"/>
     <use xlink:href="#md738705d9e" x="548.465526" y="379.335379" style="fill: #1f77b4; stroke: #1f77b4"/>
     <use xlink:href="#md738705d9e" x="550.604484" y="380.82299" style="fill: #1f77b4; stroke: #1f77b4"/>
     <use xlink:href="#md738705d9e" x="552.702698" y="382.282263" style="fill: #1f77b4; stroke: #1f77b4"/>
     <use xlink:href="#md738705d9e" x="554.76169" y="383.714259" style="fill: #1f77b4; stroke: #1f77b4"/>
     <use xlink:href="#md738705d9e" x="556.7829" y="385.119978" style="fill: #1f77b4; stroke: #1f77b4"/>
     <use xlink:href="#md738705d9e" x="558.76769" y="386.500368" style="fill: #1f77b4; stroke: #1f77b4"/>
     <use xlink:href="#md738705d9e" x="560.71735" y="387.856325" style="fill: #1f77b4; stroke: #1f77b4"/>
     <use xlink:href="#md738705d9e" x="562.6331" y="389.188698" style="fill: #1f77b4; stroke: #1f77b4"/>
     <use xlink:href="#md738705d9e" x="564.516101" y="390.498295" style="fill: #1f77b4; stroke: #1f77b4"/>
     <use xlink:href="#md738705d9e" x="566.367454" y="391.785881" style="fill: #1f77b4; stroke: #1f77b4"/>
     <use xlink:href="#md738705d9e" x="568.188204" y="393.052183" style="fill: #1f77b4; stroke: #1f77b4"/>
     <use xlink:href="#md738705d9e" x="569.979347" y="394.297894" style="fill: #1f77b4; stroke: #1f77b4"/>
     <use xlink:href="#md738705d9e" x="571.74183" y="395.523673" style="fill: #1f77b4; stroke: #1f77b4"/>
     <use xlink:href="#md738705d9e" x="573.476557" y="396.730147" style="fill: #1f77b4; stroke: #1f77b4"/>
     <use xlink:href="#md738705d9e" x="575.184388" y="397.917916" style="fill: #1f77b4; stroke: #1f77b4"/>
     <use xlink:href="#md738705d9e" x="576.866144" y="399.08755" style="fill: #1f77b4; stroke: #1f77b4"/>
     <use xlink:href="#md738705d9e" x="578.522609" y="400.239595" style="fill: #1f77b4; stroke: #1f77b4"/>
     <use xlink:href="#md738705d9e" x="580.154533" y="401.374572" style="fill: #1f77b4; stroke: #1f77b4"/>
     <use xlink:href="#md738705d9e" x="581.762633" y="402.49298" style="fill: #1f77b4; stroke: #1f77b4"/>
     <use xlink:href="#md738705d9e" x="583.347594" y="403.595294" style="fill: #1f77b4; stroke: #1f77b4"/>
     <use xlink:href="#md738705d9e" x="584.910072" y="404.681973" style="fill: #1f77b4; stroke: #1f77b4"/>
     <use xlink:href="#md738705d9e" x="586.450697" y="405.753452" style="fill: #1f77b4; stroke: #1f77b4"/>
     <use xlink:href="#md738705d9e" x="587.970071" y="406.810153" style="fill: #1f77b4; stroke: #1f77b4"/>
     <use xlink:href="#md738705d9e" x="589.468773" y="407.852475" style="fill: #1f77b4; stroke: #1f77b4"/>
     <use xlink:href="#md738705d9e" x="590.947357" y="408.880807" style="fill: #1f77b4; stroke: #1f77b4"/>
     <use xlink:href="#md738705d9e" x="592.406357" y="409.895518" style="fill: #1f77b4; stroke: #1f77b4"/>
     <use xlink:href="#md738705d9e" x="593.846284" y="410.896964" style="fill: #1f77b4; stroke: #1f77b4"/>
     <use xlink:href="#md738705d9e" x="595.267631" y="411.885488" style="fill: #1f77b4; stroke: #1f77b4"/>
     <use xlink:href="#md738705d9e" x="596.670871" y="412.861419" style="fill: #1f77b4; stroke: #1f77b4"/>
     <use xlink:href="#md738705d9e" x="598.05646" y="413.825074" style="fill: #1f77b4; stroke: #1f77b4"/>
     <use xlink:href="#md738705d9e" x="599.424837" y="414.776757" style="fill: #1f77b4; stroke: #1f77b4"/>
     <use xlink:href="#md738705d9e" x="600.776423" y="415.716764" style="fill: #1f77b4; stroke: #1f77b4"/>
     <use xlink:href="#md738705d9e" x="602.111625" y="416.645375" style="fill: #1f77b4; stroke: #1f77b4"/>
     <use xlink:href="#md738705d9e" x="603.430837" y="417.562866" style="fill: #1f77b4; stroke: #1f77b4"/>
     <use xlink:href="#md738705d9e" x="604.734437" y="418.469498" style="fill: #1f77b4; stroke: #1f77b4"/>
     <use xlink:href="#md738705d9e" x="606.022789" y="419.365527" style="fill: #1f77b4; stroke: #1f77b4"/>
     <use xlink:href="#md738705d9e" x="607.296247" y="420.251196" style="fill: #1f77b4; stroke: #1f77b4"/>
     <use xlink:href="#md738705d9e" x="608.55515" y="421.126743" style="fill: #1f77b4; stroke: #1f77b4"/>
     <use xlink:href="#md738705d9e" x="609.799829" y="421.992397" style="fill: #1f77b4; stroke: #1f77b4"/>
     <use xlink:href="#md738705d9e" x="611.0306" y="422.848379" style="fill: #1f77b4; stroke: #1f77b4"/>
     <use xlink:href="#md738705d9e" x="612.247771" y="423.694902" style="fill: #1f77b4; stroke: #1f77b4"/>
     <use xlink:href="#md738705d9e" x="613.45164" y="424.532173" style="fill: #1f77b4; stroke: #1f77b4"/>
     <use xlink:href="#md738705d9e" x="614.642493" y="425.360392" style="fill: #1f77b4; stroke: #1f77b4"/>
     <use xlink:href="#md738705d9e" x="615.82061" y="426.179753" style="fill: #1f77b4; stroke: #1f77b4"/>
     <use xlink:href="#md738705d9e" x="616.98626" y="426.990444" style="fill: #1f77b4; stroke: #1f77b4"/>
     <use xlink:href="#md738705d9e" x="618.139704" y="427.792646" style="fill: #1f77b4; stroke: #1f77b4"/>
     <use xlink:href="#md738705d9e" x="619.281194" y="428.586534" style="fill: #1f77b4; stroke: #1f77b4"/>
     <use xlink:href="#md738705d9e" x="620.410977" y="429.37228" style="fill: #1f77b4; stroke: #1f77b4"/>
     <use xlink:href="#md738705d9e" x="621.52929" y="430.150048" style="fill: #1f77b4; stroke: #1f77b4"/>
     <use xlink:href="#md738705d9e" x="622.636364" y="430.92" style="fill: #1f77b4; stroke: #1f77b4"/>
    </g>
   </g>
   <g id="line2d_42">
    <path d="M 115.363636 78.12 
L 191.71579 101.946628 
L 236.378936 137.665306 
L 268.067943 138.383562 
L 292.647847 148.298069 
L 312.73109 153.080888 
L 329.71123 169.89256 
L 344.420097 178.82263 
L 357.394236 183.218342 
L 369 185.865262 
L 379.49869 186.943597 
L 389.083243 200.950668 
L 397.900178 212.575925 
L 406.063384 220.531821 
L 413.663147 225.920651 
L 420.77225 226.121606 
L 427.450226 234.095729 
L 433.74639 234.278641 
L 439.70205 234.768552 
L 445.352153 235.903223 
L 450.72653 236.487394 
L 455.850844 237.245077 
L 460.747333 238.84807 
L 465.435397 239.826216 
L 469.932057 241.373043 
L 474.252331 243.248551 
L 478.409537 245.359013 
L 482.415537 248.748411 
L 486.280947 249.563809 
L 490.0153 258.792326 
L 493.627193 263.859985 
L 497.124404 266.077185 
L 500.51399 268.265285 
L 503.80238 268.392227 
L 506.99544 268.93409 
L 510.098543 273.378855 
L 513.116619 277.773689 
L 516.054203 280.589054 
L 518.915478 280.850202 
L 521.704307 284.956981 
L 524.424269 286.309418 
L 527.078684 287.319313 
L 529.670636 289.379941 
L 532.202997 289.421725 
L 534.678447 289.463531 
L 537.099486 290.009095 
L 539.468457 290.093374 
L 541.78755 292.404675 
L 544.058824 292.884168 
L 546.28421 293.103115 
L 548.465526 293.807981 
L 550.604484 297.062681 
L 552.702698 297.062681 
L 554.76169 299.264391 
L 556.7829 299.645534 
L 558.76769 299.884714 
L 560.71735 301.433412 
L 562.6331 302.120939 
L 564.516101 302.615834 
L 566.367454 309.630075 
L 568.188204 310.615773 
L 569.979347 311.113418 
L 571.74183 313.47949 
L 573.476557 313.536725 
L 575.184388 314.169153 
L 576.866144 315.861928 
L 578.522609 316.633072 
L 580.154533 318.44283 
L 581.762633 323.750147 
L 583.347594 325.269834 
L 584.910072 330.30313 
L 586.450697 334.401657 
L 587.970071 335.081293 
L 589.468773 336.304625 
L 590.947357 336.458924 
L 592.406357 337.157143 
L 593.846284 337.469516 
L 595.267631 337.704635 
L 596.670871 338.019254 
L 598.05646 339.370989 
L 599.424837 339.45125 
L 600.776423 339.69254 
L 602.111625 339.69254 
L 603.430837 341.074394 
L 604.734437 342.231411 
L 606.022789 342.648902 
L 607.296247 342.732674 
L 608.55515 343.490774 
L 609.799829 344.857313 
L 611.0306 346.865427 
L 612.247771 349.01853 
L 613.45164 350.767052 
L 614.642493 351.327613 
L 615.82061 352.366082 
L 616.98626 352.651761 
L 618.139704 353.708461 
L 619.281194 353.902164 
L 620.410977 353.902164 
L 621.52929 357.17107 
L 622.636364 358.498117 
" clip-path="url(#p8de0758f15)" style="fill: none; stroke: #ff7f0e; stroke-width: 1.5; stroke-linecap: square"/>
    <defs>
     <path id="mea2b89c719" d="M 0 1.5 
C 0.397805 1.5 0.77937 1.341951 1.06066 1.06066 
C 1.341951 0.77937 1.5 0.397805 1.5 0 
C 1.5 -0.397805 1.341951 -0.77937 1.06066 -1.06066 
C 0.77937 -1.341951 0.397805 -1.5 0 -1.5 
C -0.397805 -1.5 -0.77937 -1.341951 -1.06066 -1.06066 
C -1.341951 -0.77937 -1.5 -0.397805 -1.5 0 
C -1.5 0.397805 -1.341951 0.77937 -1.06066 1.06066 
C -0.77937 1.341951 -0.397805 1.5 0 1.5 
z
" style="stroke: #ff7f0e"/>
    </defs>
    <g clip-path="url(#p8de0758f15)">
     <use xlink:href="#mea2b89c719" x="115.363636" y="78.12" style="fill: #ff7f0e; stroke: #ff7f0e"/>
     <use xlink:href="#mea2b89c719" x="191.71579" y="101.946628" style="fill: #ff7f0e; stroke: #ff7f0e"/>
     <use xlink:href="#mea2b89c719" x="236.378936" y="137.665306" style="fill: #ff7f0e; stroke: #ff7f0e"/>
     <use xlink:href="#mea2b89c719" x="268.067943" y="138.383562" style="fill: #ff7f0e; stroke: #ff7f0e"/>
     <use xlink:href="#mea2b89c719" x="292.647847" y="148.298069" style="fill: #ff7f0e; stroke: #ff7f0e"/>
     <use xlink:href="#mea2b89c719" x="312.73109" y="153.080888" style="fill: #ff7f0e; stroke: #ff7f0e"/>
     <use xlink:href="#mea2b89c719" x="329.71123" y="169.89256" style="fill: #ff7f0e; stroke: #ff7f0e"/>
     <use xlink:href="#mea2b89c719" x="344.420097" y="178.82263" style="fill: #ff7f0e; stroke: #ff7f0e"/>
     <use xlink:href="#mea2b89c719" x="357.394236" y="183.218342" style="fill: #ff7f0e; stroke: #ff7f0e"/>
     <use xlink:href="#mea2b89c719" x="369" y="185.865262" style="fill: #ff7f0e; stroke: #ff7f0e"/>
     <use xlink:href="#mea2b89c719" x="379.49869" y="186.943597" style="fill: #ff7f0e; stroke: #ff7f0e"/>
     <use xlink:href="#mea2b89c719" x="389.083243" y="200.950668" style="fill: #ff7f0e; stroke: #ff7f0e"/>
     <use xlink:href="#mea2b89c719" x="397.900178" y="212.575925" style="fill: #ff7f0e; stroke: #ff7f0e"/>
     <use xlink:href="#mea2b89c719" x="406.063384" y="220.531821" style="fill: #ff7f0e; stroke: #ff7f0e"/>
     <use xlink:href="#mea2b89c719" x="413.663147" y="225.920651" style="fill: #ff7f0e; stroke: #ff7f0e"/>
     <use xlink:href="#mea2b89c719" x="420.77225" y="226.121606" style="fill: #ff7f0e; stroke: #ff7f0e"/>
     <use xlink:href="#mea2b89c719" x="427.450226" y="234.095729" style="fill: #ff7f0e; stroke: #ff7f0e"/>
     <use xlink:href="#mea2b89c719" x="433.74639" y="234.278641" style="fill: #ff7f0e; stroke: #ff7f0e"/>
     <use xlink:href="#mea2b89c719" x="439.70205" y="234.768552" style="fill: #ff7f0e; stroke: #ff7f0e"/>
     <use xlink:href="#mea2b89c719" x="445.352153" y="235.903223" style="fill: #ff7f0e; stroke: #ff7f0e"/>
     <use xlink:href="#mea2b89c719" x="450.72653" y="236.487394" style="fill: #ff7f0e; stroke: #ff7f0e"/>
     <use xlink:href="#mea2b89c719" x="455.850844" y="237.245077" style="fill: #ff7f0e; stroke: #ff7f0e"/>
     <use xlink:href="#mea2b89c719" x="460.747333" y="238.84807" style="fill: #ff7f0e; stroke: #ff7f0e"/>
     <use xlink:href="#mea2b89c719" x="465.435397" y="239.826216" style="fill: #ff7f0e; stroke: #ff7f0e"/>
     <use xlink:href="#mea2b89c719" x="469.932057" y="241.373043" style="fill: #ff7f0e; stroke: #ff7f0e"/>
     <use xlink:href="#mea2b89c719" x="474.252331" y="243.248551" style="fill: #ff7f0e; stroke: #ff7f0e"/>
     <use xlink:href="#mea2b89c719" x="478.409537" y="245.359013" style="fill: #ff7f0e; stroke: #ff7f0e"/>
     <use xlink:href="#mea2b89c719" x="482.415537" y="248.748411" style="fill: #ff7f0e; stroke: #ff7f0e"/>
     <use xlink:href="#mea2b89c719" x="486.280947" y="249.563809" style="fill: #ff7f0e; stroke: #ff7f0e"/>
     <use xlink:href="#mea2b89c719" x="490.0153" y="258.792326" style="fill: #ff7f0e; stroke: #ff7f0e"/>
     <use xlink:href="#mea2b89c719" x="493.627193" y="263.859985" style="fill: #ff7f0e; stroke: #ff7f0e"/>
     <use xlink:href="#mea2b89c719" x="497.124404" y="266.077185" style="fill: #ff7f0e; stroke: #ff7f0e"/>
     <use xlink:href="#mea2b89c719" x="500.51399" y="268.265285" style="fill: #ff7f0e; stroke: #ff7f0e"/>
     <use xlink:href="#mea2b89c719" x="503.80238" y="268.392227" style="fill: #ff7f0e; stroke: #ff7f0e"/>
     <use xlink:href="#mea2b89c719" x="506.99544" y="268.93409" style="fill: #ff7f0e; stroke: #ff7f0e"/>
     <use xlink:href="#mea2b89c719" x="510.098543" y="273.378855" style="fill: #ff7f0e; stroke: #ff7f0e"/>
     <use xlink:href="#mea2b89c719" x="513.116619" y="277.773689" style="fill: #ff7f0e; stroke: #ff7f0e"/>
     <use xlink:href="#mea2b89c719" x="516.054203" y="280.589054" style="fill: #ff7f0e; stroke: #ff7f0e"/>
     <use xlink:href="#mea2b89c719" x="518.915478" y="280.850202" style="fill: #ff7f0e; stroke: #ff7f0e"/>
     <use xlink:href="#mea2b89c719" x="521.704307" y="284.956981" style="fill: #ff7f0e; stroke: #ff7f0e"/>
     <use xlink:href="#mea2b89c719" x="524.424269" y="286.309418" style="fill: #ff7f0e; stroke: #ff7f0e"/>
     <use xlink:href="#mea2b89c719" x="527.078684" y="287.319313" style="fill: #ff7f0e; stroke: #ff7f0e"/>
     <use xlink:href="#mea2b89c719" x="529.670636" y="289.379941" style="fill: #ff7f0e; stroke: #ff7f0e"/>
     <use xlink:href="#mea2b89c719" x="532.202997" y="289.421725" style="fill: #ff7f0e; stroke: #ff7f0e"/>
     <use xlink:href="#mea2b89c719" x="534.678447" y="289.463531" style="fill: #ff7f0e; stroke: #ff7f0e"/>
     <use xlink:href="#mea2b89c719" x="537.099486" y="290.009095" style="fill: #ff7f0e; stroke: #ff7f0e"/>
     <use xlink:href="#mea2b89c719" x="539.468457" y="290.093374" style="fill: #ff7f0e; stroke: #ff7f0e"/>
     <use xlink:href="#mea2b89c719" x="541.78755" y="292.404675" style="fill: #ff7f0e; stroke: #ff7f0e"/>
     <use xlink:href="#mea2b89c719" x="544.058824" y="292.884168" style="fill: #ff7f0e; stroke: #ff7f0e"/>
     <use xlink:href="#mea2b89c719" x="546.28421" y="293.103115" style="fill: #ff7f0e; stroke: #ff7f0e"/>
     <use xlink:href="#mea2b89c719" x="548.465526" y="293.807981" style="fill: #ff7f0e; stroke: #ff7f0e"/>
     <use xlink:href="#mea2b89c719" x="550.604484" y="297.062681" style="fill: #ff7f0e; stroke: #ff7f0e"/>
     <use xlink:href="#mea2b89c719" x="552.702698" y="297.062681" style="fill: #ff7f0e; stroke: #ff7f0e"/>
     <use xlink:href="#mea2b89c719" x="554.76169" y="299.264391" style="fill: #ff7f0e; stroke: #ff7f0e"/>
     <use xlink:href="#mea2b89c719" x="556.7829" y="299.645534" style="fill: #ff7f0e; stroke: #ff7f0e"/>
     <use xlink:href="#mea2b89c719" x="558.76769" y="299.884714" style="fill: #ff7f0e; stroke: #ff7f0e"/>
     <use xlink:href="#mea2b89c719" x="560.71735" y="301.433412" style="fill: #ff7f0e; stroke: #ff7f0e"/>
     <use xlink:href="#mea2b89c719" x="562.6331" y="302.120939" style="fill: #ff7f0e; stroke: #ff7f0e"/>
     <use xlink:href="#mea2b89c719" x="564.516101" y="302.615834" style="fill: #ff7f0e; stroke: #ff7f0e"/>
     <use xlink:href="#mea2b89c719" x="566.367454" y="309.630075" style="fill: #ff7f0e; stroke: #ff7f0e"/>
     <use xlink:href="#mea2b89c719" x="568.188204" y="310.615773" style="fill: #ff7f0e; stroke: #ff7f0e"/>
     <use xlink:href="#mea2b89c719" x="569.979347" y="311.113418" style="fill: #ff7f0e; stroke: #ff7f0e"/>
     <use xlink:href="#mea2b89c719" x="571.74183" y="313.47949" style="fill: #ff7f0e; stroke: #ff7f0e"/>
     <use xlink:href="#mea2b89c719" x="573.476557" y="313.536725" style="fill: #ff7f0e; stroke: #ff7f0e"/>
     <use xlink:href="#mea2b89c719" x="575.184388" y="314.169153" style="fill: #ff7f0e; stroke: #ff7f0e"/>
     <use xlink:href="#mea2b89c719" x="576.866144" y="315.861928" style="fill: #ff7f0e; stroke: #ff7f0e"/>
     <use xlink:href="#mea2b89c719" x="578.522609" y="316.633072" style="fill: #ff7f0e; stroke: #ff7f0e"/>
     <use xlink:href="#mea2b89c719" x="580.154533" y="318.44283" style="fill: #ff7f0e; stroke: #ff7f0e"/>
     <use xlink:href="#mea2b89c719" x="581.762633" y="323.750147" style="fill: #ff7f0e; stroke: #ff7f0e"/>
     <use xlink:href="#mea2b89c719" x="583.347594" y="325.269834" style="fill: #ff7f0e; stroke: #ff7f0e"/>
     <use xlink:href="#mea2b89c719" x="584.910072" y="330.30313" style="fill: #ff7f0e; stroke: #ff7f0e"/>
     <use xlink:href="#mea2b89c719" x="586.450697" y="334.401657" style="fill: #ff7f0e; stroke: #ff7f0e"/>
     <use xlink:href="#mea2b89c719" x="587.970071" y="335.081293" style="fill: #ff7f0e; stroke: #ff7f0e"/>
     <use xlink:href="#mea2b89c719" x="589.468773" y="336.304625" style="fill: #ff7f0e; stroke: #ff7f0e"/>
     <use xlink:href="#mea2b89c719" x="590.947357" y="336.458924" style="fill: #ff7f0e; stroke: #ff7f0e"/>
     <use xlink:href="#mea2b89c719" x="592.406357" y="337.157143" style="fill: #ff7f0e; stroke: #ff7f0e"/>
     <use xlink:href="#mea2b89c719" x="593.846284" y="337.469516" style="fill: #ff7f0e; stroke: #ff7f0e"/>
     <use xlink:href="#mea2b89c719" x="595.267631" y="337.704635" style="fill: #ff7f0e; stroke: #ff7f0e"/>
     <use xlink:href="#mea2b89c719" x="596.670871" y="338.019254" style="fill: #ff7f0e; stroke: #ff7f0e"/>
     <use xlink:href="#mea2b89c719" x="598.05646" y="339.370989" style="fill: #ff7f0e; stroke: #ff7f0e"/>
     <use xlink:href="#mea2b89c719" x="599.424837" y="339.45125" style="fill: #ff7f0e; stroke: #ff7f0e"/>
     <use xlink:href="#mea2b89c719" x="600.776423" y="339.69254" style="fill: #ff7f0e; stroke: #ff7f0e"/>
     <use xlink:href="#mea2b89c719" x="602.111625" y="339.69254" style="fill: #ff7f0e; stroke: #ff7f0e"/>
     <use xlink:href="#mea2b89c719" x="603.430837" y="341.074394" style="fill: #ff7f0e; stroke: #ff7f0e"/>
     <use xlink:href="#mea2b89c719" x="604.734437" y="342.231411" style="fill: #ff7f0e; stroke: #ff7f0e"/>
     <use xlink:href="#mea2b89c719" x="606.022789" y="342.648902" style="fill: #ff7f0e; stroke: #ff7f0e"/>
     <use xlink:href="#mea2b89c719" x="607.296247" y="342.732674" style="fill: #ff7f0e; stroke: #ff7f0e"/>
     <use xlink:href="#mea2b89c719" x="608.55515" y="343.490774" style="fill: #ff7f0e; stroke: #ff7f0e"/>
     <use xlink:href="#mea2b89c719" x="609.799829" y="344.857313" style="fill: #ff7f0e; stroke: #ff7f0e"/>
     <use xlink:href="#mea2b89c719" x="611.0306" y="346.865427" style="fill: #ff7f0e; stroke: #ff7f0e"/>
     <use xlink:href="#mea2b89c719" x="612.247771" y="349.01853" style="fill: #ff7f0e; stroke: #ff7f0e"/>
     <use xlink:href="#mea2b89c719" x="613.45164" y="350.767052" style="fill: #ff7f0e; stroke: #ff7f0e"/>
     <use xlink:href="#mea2b89c719" x="614.642493" y="351.327613" style="fill: #ff7f0e; stroke: #ff7f0e"/>
     <use xlink:href="#mea2b89c719" x="615.82061" y="352.366082" style="fill: #ff7f0e; stroke: #ff7f0e"/>
     <use xlink:href="#mea2b89c719" x="616.98626" y="352.651761" style="fill: #ff7f0e; stroke: #ff7f0e"/>
     <use xlink:href="#mea2b89c719" x="618.139704" y="353.708461" style="fill: #ff7f0e; stroke: #ff7f0e"/>
     <use xlink:href="#mea2b89c719" x="619.281194" y="353.902164" style="fill: #ff7f0e; stroke: #ff7f0e"/>
     <use xlink:href="#mea2b89c719" x="620.410977" y="353.902164" style="fill: #ff7f0e; stroke: #ff7f0e"/>
     <use xlink:href="#mea2b89c719" x="621.52929" y="357.17107" style="fill: #ff7f0e; stroke: #ff7f0e"/>
     <use xlink:href="#mea2b89c719" x="622.636364" y="358.498117" style="fill: #ff7f0e; stroke: #ff7f0e"/>
    </g>
   </g>
   <g id="patch_3">
    <path d="M 90 448.56 
L 90 60.48 
" style="fill: none; stroke: #000000; stroke-width: 0.8; stroke-linejoin: miter; stroke-linecap: square"/>
   </g>
   <g id="patch_4">
    <path d="M 648 448.56 
L 648 60.48 
" style="fill: none; stroke: #000000; stroke-width: 0.8; stroke-linejoin: miter; stroke-linecap: square"/>
   </g>
   <g id="patch_5">
    <path d="M 90 448.56 
L 648 448.56 
" style="fill: none; stroke: #000000; stroke-width: 0.8; stroke-linejoin: miter; stroke-linecap: square"/>
   </g>
   <g id="patch_6">
    <path d="M 90 60.48 
L 648 60.48 
" style="fill: none; stroke: #000000; stroke-width: 0.8; stroke-linejoin: miter; stroke-linecap: square"/>
   </g>
   <g id="text_8">
    <!-- Most Common 100 Words in Reality vs. in Zipf's Law Theoretical Prediction (log) -->
    <g transform="translate(129.192188 54.48) scale(0.12 -0.12)">
     <defs>
      <path id="DejaVuSans-4d" d="M 628 4666 
L 1569 4666 
L 2759 1491 
L 3956 4666 
L 4897 4666 
L 4897 0 
L 4281 0 
L 4281 4097 
L 3078 897 
L 2444 897 
L 1241 4097 
L 1241 0 
L 628 0 
L 628 4666 
z
" transform="scale(0.015625)"/>
      <path id="DejaVuSans-6f" d="M 1959 3097 
Q 1497 3097 1228 2736 
Q 959 2375 959 1747 
Q 959 1119 1226 758 
Q 1494 397 1959 397 
Q 2419 397 2687 759 
Q 2956 1122 2956 1747 
Q 2956 2369 2687 2733 
Q 2419 3097 1959 3097 
z
M 1959 3584 
Q 2709 3584 3137 3096 
Q 3566 2609 3566 1747 
Q 3566 888 3137 398 
Q 2709 -91 1959 -91 
Q 1206 -91 779 398 
Q 353 888 353 1747 
Q 353 2609 779 3096 
Q 1206 3584 1959 3584 
z
" transform="scale(0.015625)"/>
      <path id="DejaVuSans-73" d="M 2834 3397 
L 2834 2853 
Q 2591 2978 2328 3040 
Q 2066 3103 1784 3103 
Q 1356 3103 1142 2972 
Q 928 2841 928 2578 
Q 928 2378 1081 2264 
Q 1234 2150 1697 2047 
L 1894 2003 
Q 2506 1872 2764 1633 
Q 3022 1394 3022 966 
Q 3022 478 2636 193 
Q 2250 -91 1575 -91 
Q 1294 -91 989 -36 
Q 684 19 347 128 
L 347 722 
Q 666 556 975 473 
Q 1284 391 1588 391 
Q 1994 391 2212 530 
Q 2431 669 2431 922 
Q 2431 1156 2273 1281 
Q 2116 1406 1581 1522 
L 1381 1569 
Q 847 1681 609 1914 
Q 372 2147 372 2553 
Q 372 3047 722 3315 
Q 1072 3584 1716 3584 
Q 2034 3584 2315 3537 
Q 2597 3491 2834 3397 
z
" transform="scale(0.015625)"/>
      <path id="DejaVuSans-74" d="M 1172 4494 
L 1172 3500 
L 2356 3500 
L 2356 3053 
L 1172 3053 
L 1172 1153 
Q 1172 725 1289 603 
Q 1406 481 1766 481 
L 2356 481 
L 2356 0 
L 1766 0 
Q 1100 0 847 248 
Q 594 497 594 1153 
L 594 3053 
L 172 3053 
L 172 3500 
L 594 3500 
L 594 4494 
L 1172 4494 
z
" transform="scale(0.015625)"/>
      <path id="DejaVuSans-20" transform="scale(0.015625)"/>
      <path id="DejaVuSans-43" d="M 4122 4306 
L 4122 3641 
Q 3803 3938 3442 4084 
Q 3081 4231 2675 4231 
Q 1875 4231 1450 3742 
Q 1025 3253 1025 2328 
Q 1025 1406 1450 917 
Q 1875 428 2675 428 
Q 3081 428 3442 575 
Q 3803 722 4122 1019 
L 4122 359 
Q 3791 134 3420 21 
Q 3050 -91 2638 -91 
Q 1578 -91 968 557 
Q 359 1206 359 2328 
Q 359 3453 968 4101 
Q 1578 4750 2638 4750 
Q 3056 4750 3426 4639 
Q 3797 4528 4122 4306 
z
" transform="scale(0.015625)"/>
      <path id="DejaVuSans-6d" d="M 3328 2828 
Q 3544 3216 3844 3400 
Q 4144 3584 4550 3584 
Q 5097 3584 5394 3201 
Q 5691 2819 5691 2113 
L 5691 0 
L 5113 0 
L 5113 2094 
Q 5113 2597 4934 2840 
Q 4756 3084 4391 3084 
Q 3944 3084 3684 2787 
Q 3425 2491 3425 1978 
L 3425 0 
L 2847 0 
L 2847 2094 
Q 2847 2600 2669 2842 
Q 2491 3084 2119 3084 
Q 1678 3084 1418 2786 
Q 1159 2488 1159 1978 
L 1159 0 
L 581 0 
L 581 3500 
L 1159 3500 
L 1159 2956 
Q 1356 3278 1631 3431 
Q 1906 3584 2284 3584 
Q 2666 3584 2933 3390 
Q 3200 3197 3328 2828 
z
" transform="scale(0.015625)"/>
      <path id="DejaVuSans-57" d="M 213 4666 
L 850 4666 
L 1831 722 
L 2809 4666 
L 3519 4666 
L 4500 722 
L 5478 4666 
L 6119 4666 
L 4947 0 
L 4153 0 
L 3169 4050 
L 2175 0 
L 1381 0 
L 213 4666 
z
" transform="scale(0.015625)"/>
      <path id="DejaVuSans-64" d="M 2906 2969 
L 2906 4863 
L 3481 4863 
L 3481 0 
L 2906 0 
L 2906 525 
Q 2725 213 2448 61 
Q 2172 -91 1784 -91 
Q 1150 -91 751 415 
Q 353 922 353 1747 
Q 353 2572 751 3078 
Q 1150 3584 1784 3584 
Q 2172 3584 2448 3432 
Q 2725 3281 2906 2969 
z
M 947 1747 
Q 947 1113 1208 752 
Q 1469 391 1925 391 
Q 2381 391 2643 752 
Q 2906 1113 2906 1747 
Q 2906 2381 2643 2742 
Q 2381 3103 1925 3103 
Q 1469 3103 1208 2742 
Q 947 2381 947 1747 
z
" transform="scale(0.015625)"/>
      <path id="DejaVuSans-69" d="M 603 3500 
L 1178 3500 
L 1178 0 
L 603 0 
L 603 3500 
z
M 603 4863 
L 1178 4863 
L 1178 4134 
L 603 4134 
L 603 4863 
z
" transform="scale(0.015625)"/>
      <path id="DejaVuSans-52" d="M 2841 2188 
Q 3044 2119 3236 1894 
Q 3428 1669 3622 1275 
L 4263 0 
L 3584 0 
L 2988 1197 
Q 2756 1666 2539 1819 
Q 2322 1972 1947 1972 
L 1259 1972 
L 1259 0 
L 628 0 
L 628 4666 
L 2053 4666 
Q 2853 4666 3247 4331 
Q 3641 3997 3641 3322 
Q 3641 2881 3436 2590 
Q 3231 2300 2841 2188 
z
M 1259 4147 
L 1259 2491 
L 2053 2491 
Q 2509 2491 2742 2702 
Q 2975 2913 2975 3322 
Q 2975 3731 2742 3939 
Q 2509 4147 2053 4147 
L 1259 4147 
z
" transform="scale(0.015625)"/>
      <path id="DejaVuSans-6c" d="M 603 4863 
L 1178 4863 
L 1178 0 
L 603 0 
L 603 4863 
z
" transform="scale(0.015625)"/>
      <path id="DejaVuSans-76" d="M 191 3500 
L 800 3500 
L 1894 563 
L 2988 3500 
L 3597 3500 
L 2284 0 
L 1503 0 
L 191 3500 
z
" transform="scale(0.015625)"/>
      <path id="DejaVuSans-2e" d="M 684 794 
L 1344 794 
L 1344 0 
L 684 0 
L 684 794 
z
" transform="scale(0.015625)"/>
      <path id="DejaVuSans-5a" d="M 359 4666 
L 4025 4666 
L 4025 4184 
L 1075 531 
L 4097 531 
L 4097 0 
L 288 0 
L 288 481 
L 3238 4134 
L 359 4134 
L 359 4666 
z
" transform="scale(0.015625)"/>
      <path id="DejaVuSans-70" d="M 1159 525 
L 1159 -1331 
L 581 -1331 
L 581 3500 
L 1159 3500 
L 1159 2969 
Q 1341 3281 1617 3432 
Q 1894 3584 2278 3584 
Q 2916 3584 3314 3078 
Q 3713 2572 3713 1747 
Q 3713 922 3314 415 
Q 2916 -91 2278 -91 
Q 1894 -91 1617 61 
Q 1341 213 1159 525 
z
M 3116 1747 
Q 3116 2381 2855 2742 
Q 2594 3103 2138 3103 
Q 1681 3103 1420 2742 
Q 1159 2381 1159 1747 
Q 1159 1113 1420 752 
Q 1681 391 2138 391 
Q 2594 391 2855 752 
Q 3116 1113 3116 1747 
z
" transform="scale(0.015625)"/>
      <path id="DejaVuSans-27" d="M 1147 4666 
L 1147 2931 
L 616 2931 
L 616 4666 
L 1147 4666 
z
" transform="scale(0.015625)"/>
      <path id="DejaVuSans-4c" d="M 628 4666 
L 1259 4666 
L 1259 531 
L 3531 531 
L 3531 0 
L 628 0 
L 628 4666 
z
" transform="scale(0.015625)"/>
      <path id="DejaVuSans-77" d="M 269 3500 
L 844 3500 
L 1563 769 
L 2278 3500 
L 2956 3500 
L 3675 769 
L 4391 3500 
L 4966 3500 
L 4050 0 
L 3372 0 
L 2619 2869 
L 1863 0 
L 1184 0 
L 269 3500 
z
" transform="scale(0.015625)"/>
      <path id="DejaVuSans-54" d="M -19 4666 
L 3928 4666 
L 3928 4134 
L 2272 4134 
L 2272 0 
L 1638 0 
L 1638 4134 
L -19 4134 
L -19 4666 
z
" transform="scale(0.015625)"/>
      <path id="DejaVuSans-68" d="M 3513 2113 
L 3513 0 
L 2938 0 
L 2938 2094 
Q 2938 2591 2744 2837 
Q 2550 3084 2163 3084 
Q 1697 3084 1428 2787 
Q 1159 2491 1159 1978 
L 1159 0 
L 581 0 
L 581 4863 
L 1159 4863 
L 1159 2956 
Q 1366 3272 1645 3428 
Q 1925 3584 2291 3584 
Q 2894 3584 3203 3211 
Q 3513 2838 3513 2113 
z
" transform="scale(0.015625)"/>
      <path id="DejaVuSans-50" d="M 1259 4147 
L 1259 2394 
L 2053 2394 
Q 2494 2394 2734 2622 
Q 2975 2850 2975 3272 
Q 2975 3691 2734 3919 
Q 2494 4147 2053 4147 
L 1259 4147 
z
M 628 4666 
L 2053 4666 
Q 2838 4666 3239 4311 
Q 3641 3956 3641 3272 
Q 3641 2581 3239 2228 
Q 2838 1875 2053 1875 
L 1259 1875 
L 1259 0 
L 628 0 
L 628 4666 
z
" transform="scale(0.015625)"/>
      <path id="DejaVuSans-28" d="M 1984 4856 
Q 1566 4138 1362 3434 
Q 1159 2731 1159 2009 
Q 1159 1288 1364 580 
Q 1569 -128 1984 -844 
L 1484 -844 
Q 1016 -109 783 600 
Q 550 1309 550 2009 
Q 550 2706 781 3412 
Q 1013 4119 1484 4856 
L 1984 4856 
z
" transform="scale(0.015625)"/>
      <path id="DejaVuSans-67" d="M 2906 1791 
Q 2906 2416 2648 2759 
Q 2391 3103 1925 3103 
Q 1463 3103 1205 2759 
Q 947 2416 947 1791 
Q 947 1169 1205 825 
Q 1463 481 1925 481 
Q 2391 481 2648 825 
Q 2906 1169 2906 1791 
z
M 3481 434 
Q 3481 -459 3084 -895 
Q 2688 -1331 1869 -1331 
Q 1566 -1331 1297 -1286 
Q 1028 -1241 775 -1147 
L 775 -588 
Q 1028 -725 1275 -790 
Q 1522 -856 1778 -856 
Q 2344 -856 2625 -561 
Q 2906 -266 2906 331 
L 2906 616 
Q 2728 306 2450 153 
Q 2172 0 1784 0 
Q 1141 0 747 490 
Q 353 981 353 1791 
Q 353 2603 747 3093 
Q 1141 3584 1784 3584 
Q 2172 3584 2450 3431 
Q 2728 3278 2906 2969 
L 2906 3500 
L 3481 3500 
L 3481 434 
z
" transform="scale(0.015625)"/>
      <path id="DejaVuSans-29" d="M 513 4856 
L 1013 4856 
Q 1481 4119 1714 3412 
Q 1947 2706 1947 2009 
Q 1947 1309 1714 600 
Q 1481 -109 1013 -844 
L 513 -844 
Q 928 -128 1133 580 
Q 1338 1288 1338 2009 
Q 1338 2731 1133 3434 
Q 928 4138 513 4856 
z
" transform="scale(0.015625)"/>
     </defs>
     <use xlink:href="#DejaVuSans-4d"/>
     <use xlink:href="#DejaVuSans-6f" x="86.279297"/>
     <use xlink:href="#DejaVuSans-73" x="147.460938"/>
     <use xlink:href="#DejaVuSans-74" x="199.560547"/>
     <use xlink:href="#DejaVuSans-20" x="238.769531"/>
     <use xlink:href="#DejaVuSans-43" x="270.556641"/>
     <use xlink:href="#DejaVuSans-6f" x="340.380859"/>
     <use xlink:href="#DejaVuSans-6d" x="401.5625"/>
     <use xlink:href="#DejaVuSans-6d" x="498.974609"/>
     <use xlink:href="#DejaVuSans-6f" x="596.386719"/>
     <use xlink:href="#DejaVuSans-6e" x="657.568359"/>
     <use xlink:href="#DejaVuSans-20" x="720.947266"/>
     <use xlink:href="#DejaVuSans-31" x="752.734375"/>
     <use xlink:href="#DejaVuSans-30" x="816.357422"/>
     <use xlink:href="#DejaVuSans-30" x="879.980469"/>
     <use xlink:href="#DejaVuSans-20" x="943.603516"/>
     <use xlink:href="#DejaVuSans-57" x="975.390625"/>
     <use xlink:href="#DejaVuSans-6f" x="1068.392578"/>
     <use xlink:href="#DejaVuSans-72" x="1129.574219"/>
     <use xlink:href="#DejaVuSans-64" x="1168.9375"/>
     <use xlink:href="#DejaVuSans-73" x="1232.414062"/>
     <use xlink:href="#DejaVuSans-20" x="1284.513672"/>
     <use xlink:href="#DejaVuSans-69" x="1316.300781"/>
     <use xlink:href="#DejaVuSans-6e" x="1344.083984"/>
     <use xlink:href="#DejaVuSans-20" x="1407.462891"/>
     <use xlink:href="#DejaVuSans-52" x="1439.25"/>
     <use xlink:href="#DejaVuSans-65" x="1504.232422"/>
     <use xlink:href="#DejaVuSans-61" x="1565.755859"/>
     <use xlink:href="#DejaVuSans-6c" x="1627.035156"/>
     <use xlink:href="#DejaVuSans-69" x="1654.818359"/>
     <use xlink:href="#DejaVuSans-74" x="1682.601562"/>
     <use xlink:href="#DejaVuSans-79" x="1721.810547"/>
     <use xlink:href="#DejaVuSans-20" x="1780.990234"/>
     <use xlink:href="#DejaVuSans-76" x="1812.777344"/>
     <use xlink:href="#DejaVuSans-73" x="1871.957031"/>
     <use xlink:href="#DejaVuSans-2e" x="1924.056641"/>
     <use xlink:href="#DejaVuSans-20" x="1955.84375"/>
     <use xlink:href="#DejaVuSans-69" x="1987.630859"/>
     <use xlink:href="#DejaVuSans-6e" x="2015.414062"/>
     <use xlink:href="#DejaVuSans-20" x="2078.792969"/>
     <use xlink:href="#DejaVuSans-5a" x="2110.580078"/>
     <use xlink:href="#DejaVuSans-69" x="2179.085938"/>
     <use xlink:href="#DejaVuSans-70" x="2206.869141"/>
     <use xlink:href="#DejaVuSans-66" x="2270.345703"/>
     <use xlink:href="#DejaVuSans-27" x="2305.550781"/>
     <use xlink:href="#DejaVuSans-73" x="2333.041016"/>
     <use xlink:href="#DejaVuSans-20" x="2385.140625"/>
     <use xlink:href="#DejaVuSans-4c" x="2416.927734"/>
     <use xlink:href="#DejaVuSans-61" x="2472.640625"/>
     <use xlink:href="#DejaVuSans-77" x="2533.919922"/>
     <use xlink:href="#DejaVuSans-20" x="2615.707031"/>
     <use xlink:href="#DejaVuSans-54" x="2647.494141"/>
     <use xlink:href="#DejaVuSans-68" x="2708.578125"/>
     <use xlink:href="#DejaVuSans-65" x="2771.957031"/>
     <use xlink:href="#DejaVuSans-6f" x="2833.480469"/>
     <use xlink:href="#DejaVuSans-72" x="2894.662109"/>
     <use xlink:href="#DejaVuSans-65" x="2933.525391"/>
     <use xlink:href="#DejaVuSans-74" x="2995.048828"/>
     <use xlink:href="#DejaVuSans-69" x="3034.257812"/>
     <use xlink:href="#DejaVuSans-63" x="3062.041016"/>
     <use xlink:href="#DejaVuSans-61" x="3117.021484"/>
     <use xlink:href="#DejaVuSans-6c" x="3178.300781"/>
     <use xlink:href="#DejaVuSans-20" x="3206.083984"/>
     <use xlink:href="#DejaVuSans-50" x="3237.871094"/>
     <use xlink:href="#DejaVuSans-72" x="3296.423828"/>
     <use xlink:href="#DejaVuSans-65" x="3335.287109"/>
     <use xlink:href="#DejaVuSans-64" x="3396.810547"/>
     <use xlink:href="#DejaVuSans-69" x="3460.287109"/>
     <use xlink:href="#DejaVuSans-63" x="3488.070312"/>
     <use xlink:href="#DejaVuSans-74" x="3543.050781"/>
     <use xlink:href="#DejaVuSans-69" x="3582.259766"/>
     <use xlink:href="#DejaVuSans-6f" x="3610.042969"/>
     <use xlink:href="#DejaVuSans-6e" x="3671.224609"/>
     <use xlink:href="#DejaVuSans-20" x="3734.603516"/>
     <use xlink:href="#DejaVuSans-28" x="3766.390625"/>
     <use xlink:href="#DejaVuSans-6c" x="3805.404297"/>
     <use xlink:href="#DejaVuSans-6f" x="3833.1875"/>
     <use xlink:href="#DejaVuSans-67" x="3894.369141"/>
     <use xlink:href="#DejaVuSans-29" x="3957.845703"/>
    </g>
   </g>
   <g id="legend_1">
    <g id="patch_7">
     <path d="M 446.6 97.83625 
L 641 97.83625 
Q 643 97.83625 643 95.83625 
L 643 67.48 
Q 643 65.48 641 65.48 
L 446.6 65.48 
Q 444.6 65.48 444.6 67.48 
L 444.6 95.83625 
Q 444.6 97.83625 446.6 97.83625 
z
" style="fill: #ffffff; opacity: 0.8; stroke: #cccccc; stroke-linejoin: miter"/>
    </g>
    <g id="line2d_43">
     <path d="M 448.6 73.578438 
L 458.6 73.578438 
L 468.6 73.578438 
" style="fill: none; stroke: #1f77b4; stroke-width: 1.5; stroke-linecap: square"/>
     <g>
      <use xlink:href="#md738705d9e" x="458.6" y="73.578438" style="fill: #1f77b4; stroke: #1f77b4"/>
     </g>
    </g>
    <g id="text_9">
     <!-- Zipf's Law Theoretical Prediction -->
     <g transform="translate(476.6 77.078438) scale(0.1 -0.1)">
      <use xlink:href="#DejaVuSans-5a"/>
      <use xlink:href="#DejaVuSans-69" x="68.505859"/>
      <use xlink:href="#DejaVuSans-70" x="96.289062"/>
      <use xlink:href="#DejaVuSans-66" x="159.765625"/>
      <use xlink:href="#DejaVuSans-27" x="194.970703"/>
      <use xlink:href="#DejaVuSans-73" x="222.460938"/>
      <use xlink:href="#DejaVuSans-20" x="274.560547"/>
      <use xlink:href="#DejaVuSans-4c" x="306.347656"/>
      <use xlink:href="#DejaVuSans-61" x="362.060547"/>
      <use xlink:href="#DejaVuSans-77" x="423.339844"/>
      <use xlink:href="#DejaVuSans-20" x="505.126953"/>
      <use xlink:href="#DejaVuSans-54" x="536.914062"/>
      <use xlink:href="#DejaVuSans-68" x="597.998047"/>
      <use xlink:href="#DejaVuSans-65" x="661.376953"/>
      <use xlink:href="#DejaVuSans-6f" x="722.900391"/>
      <use xlink:href="#DejaVuSans-72" x="784.082031"/>
      <use xlink:href="#DejaVuSans-65" x="822.945312"/>
      <use xlink:href="#DejaVuSans-74" x="884.46875"/>
      <use xlink:href="#DejaVuSans-69" x="923.677734"/>
      <use xlink:href="#DejaVuSans-63" x="951.460938"/>
      <use xlink:href="#DejaVuSans-61" x="1006.441406"/>
      <use xlink:href="#DejaVuSans-6c" x="1067.720703"/>
      <use xlink:href="#DejaVuSans-20" x="1095.503906"/>
      <use xlink:href="#DejaVuSans-50" x="1127.291016"/>
      <use xlink:href="#DejaVuSans-72" x="1185.84375"/>
      <use xlink:href="#DejaVuSans-65" x="1224.707031"/>
      <use xlink:href="#DejaVuSans-64" x="1286.230469"/>
      <use xlink:href="#DejaVuSans-69" x="1349.707031"/>
      <use xlink:href="#DejaVuSans-63" x="1377.490234"/>
      <use xlink:href="#DejaVuSans-74" x="1432.470703"/>
      <use xlink:href="#DejaVuSans-69" x="1471.679688"/>
      <use xlink:href="#DejaVuSans-6f" x="1499.462891"/>
      <use xlink:href="#DejaVuSans-6e" x="1560.644531"/>
     </g>
    </g>
    <g id="line2d_44">
     <path d="M 448.6 88.256563 
L 458.6 88.256563 
L 468.6 88.256563 
" style="fill: none; stroke: #ff7f0e; stroke-width: 1.5; stroke-linecap: square"/>
     <g>
      <use xlink:href="#mea2b89c719" x="458.6" y="88.256563" style="fill: #ff7f0e; stroke: #ff7f0e"/>
     </g>
    </g>
    <g id="text_10">
     <!-- Reality -->
     <g transform="translate(476.6 91.756563) scale(0.1 -0.1)">
      <use xlink:href="#DejaVuSans-52"/>
      <use xlink:href="#DejaVuSans-65" x="64.982422"/>
      <use xlink:href="#DejaVuSans-61" x="126.505859"/>
      <use xlink:href="#DejaVuSans-6c" x="187.785156"/>
      <use xlink:href="#DejaVuSans-69" x="215.568359"/>
      <use xlink:href="#DejaVuSans-74" x="243.351562"/>
      <use xlink:href="#DejaVuSans-79" x="282.560547"/>
     </g>
    </g>
   </g>
  </g>
 </g>
 <defs>
  <clipPath id="p8de0758f15">
   <rect x="90" y="60.48" width="558" height="388.08"/>
  </clipPath>
 </defs>
</svg>
